<mxfile host="app.diagrams.net" agent="Mozilla/5.0 (Macintosh; Intel Mac OS X 10_15_7) AppleWebKit/537.36 (KHTML, like Gecko) Chrome/135.0.0.0 Safari/537.36 Edg/135.0.0.0" version="26.2.14">
  <diagram name="第 1 页" id="32bC2trFw8LyrnJhYmSB">
    <mxGraphModel dx="1394" dy="981" grid="1" gridSize="10" guides="1" tooltips="1" connect="1" arrows="1" fold="1" page="1" pageScale="1" pageWidth="827" pageHeight="1169" math="0" shadow="0">
      <root>
        <mxCell id="0" />
        <mxCell id="1" parent="0" />
        <mxCell id="J3AjAf2UTJisOIDAEpsq-1" value="" style="ellipse;whiteSpace=wrap;html=1;aspect=fixed;" vertex="1" parent="1">
          <mxGeometry x="110" y="580" width="60" height="60" as="geometry" />
        </mxCell>
        <mxCell id="J3AjAf2UTJisOIDAEpsq-2" value="" style="ellipse;whiteSpace=wrap;html=1;aspect=fixed;" vertex="1" parent="1">
          <mxGeometry x="63" y="460" width="60" height="60" as="geometry" />
        </mxCell>
        <mxCell id="J3AjAf2UTJisOIDAEpsq-3" value="" style="ellipse;whiteSpace=wrap;html=1;aspect=fixed;" vertex="1" parent="1">
          <mxGeometry x="160" y="460" width="60" height="60" as="geometry" />
        </mxCell>
        <mxCell id="J3AjAf2UTJisOIDAEpsq-4" value="" style="ellipse;whiteSpace=wrap;html=1;aspect=fixed;" vertex="1" parent="1">
          <mxGeometry x="250" y="460" width="60" height="60" as="geometry" />
        </mxCell>
        <mxCell id="J3AjAf2UTJisOIDAEpsq-5" value="" style="ellipse;whiteSpace=wrap;html=1;aspect=fixed;" vertex="1" parent="1">
          <mxGeometry x="210" y="580" width="60" height="60" as="geometry" />
        </mxCell>
        <mxCell id="J3AjAf2UTJisOIDAEpsq-6" value="" style="ellipse;whiteSpace=wrap;html=1;aspect=fixed;" vertex="1" parent="1">
          <mxGeometry x="10" y="340" width="60" height="60" as="geometry" />
        </mxCell>
        <mxCell id="J3AjAf2UTJisOIDAEpsq-7" value="" style="ellipse;whiteSpace=wrap;html=1;aspect=fixed;" vertex="1" parent="1">
          <mxGeometry x="110" y="340" width="60" height="60" as="geometry" />
        </mxCell>
        <mxCell id="J3AjAf2UTJisOIDAEpsq-8" value="" style="ellipse;whiteSpace=wrap;html=1;aspect=fixed;" vertex="1" parent="1">
          <mxGeometry x="210" y="340" width="60" height="60" as="geometry" />
        </mxCell>
        <mxCell id="J3AjAf2UTJisOIDAEpsq-9" value="" style="ellipse;whiteSpace=wrap;html=1;aspect=fixed;" vertex="1" parent="1">
          <mxGeometry x="310" y="340" width="60" height="60" as="geometry" />
        </mxCell>
        <mxCell id="J3AjAf2UTJisOIDAEpsq-13" value="" style="endArrow=classic;html=1;rounded=0;exitX=0.5;exitY=1;exitDx=0;exitDy=0;entryX=0.5;entryY=0;entryDx=0;entryDy=0;" edge="1" parent="1" source="J3AjAf2UTJisOIDAEpsq-6" target="J3AjAf2UTJisOIDAEpsq-2">
          <mxGeometry width="50" height="50" relative="1" as="geometry">
            <mxPoint x="40" y="640" as="sourcePoint" />
            <mxPoint x="90" y="590" as="targetPoint" />
          </mxGeometry>
        </mxCell>
        <mxCell id="J3AjAf2UTJisOIDAEpsq-14" value="" style="endArrow=classic;html=1;rounded=0;exitX=0.5;exitY=1;exitDx=0;exitDy=0;entryX=0.5;entryY=0;entryDx=0;entryDy=0;" edge="1" parent="1" source="J3AjAf2UTJisOIDAEpsq-6" target="J3AjAf2UTJisOIDAEpsq-3">
          <mxGeometry width="50" height="50" relative="1" as="geometry">
            <mxPoint x="50" y="410" as="sourcePoint" />
            <mxPoint x="103" y="470" as="targetPoint" />
          </mxGeometry>
        </mxCell>
        <mxCell id="J3AjAf2UTJisOIDAEpsq-15" value="" style="endArrow=classic;html=1;rounded=0;exitX=0.5;exitY=1;exitDx=0;exitDy=0;entryX=0.5;entryY=0;entryDx=0;entryDy=0;" edge="1" parent="1" source="J3AjAf2UTJisOIDAEpsq-6" target="J3AjAf2UTJisOIDAEpsq-4">
          <mxGeometry width="50" height="50" relative="1" as="geometry">
            <mxPoint x="60" y="420" as="sourcePoint" />
            <mxPoint x="113" y="480" as="targetPoint" />
          </mxGeometry>
        </mxCell>
        <mxCell id="J3AjAf2UTJisOIDAEpsq-16" value="" style="endArrow=classic;html=1;rounded=0;exitX=0.5;exitY=1;exitDx=0;exitDy=0;entryX=0.5;entryY=0;entryDx=0;entryDy=0;" edge="1" parent="1" source="J3AjAf2UTJisOIDAEpsq-2" target="J3AjAf2UTJisOIDAEpsq-1">
          <mxGeometry width="50" height="50" relative="1" as="geometry">
            <mxPoint x="70" y="430" as="sourcePoint" />
            <mxPoint x="123" y="490" as="targetPoint" />
          </mxGeometry>
        </mxCell>
        <mxCell id="J3AjAf2UTJisOIDAEpsq-17" value="" style="endArrow=classic;html=1;rounded=0;exitX=0.5;exitY=1;exitDx=0;exitDy=0;entryX=0.5;entryY=0;entryDx=0;entryDy=0;" edge="1" parent="1" source="J3AjAf2UTJisOIDAEpsq-2" target="J3AjAf2UTJisOIDAEpsq-5">
          <mxGeometry width="50" height="50" relative="1" as="geometry">
            <mxPoint x="103" y="530" as="sourcePoint" />
            <mxPoint x="150" y="590" as="targetPoint" />
          </mxGeometry>
        </mxCell>
        <mxCell id="J3AjAf2UTJisOIDAEpsq-18" value="" style="endArrow=classic;html=1;rounded=0;exitX=0.5;exitY=1;exitDx=0;exitDy=0;entryX=0.5;entryY=0;entryDx=0;entryDy=0;" edge="1" parent="1" source="J3AjAf2UTJisOIDAEpsq-3" target="J3AjAf2UTJisOIDAEpsq-1">
          <mxGeometry width="50" height="50" relative="1" as="geometry">
            <mxPoint x="103" y="530" as="sourcePoint" />
            <mxPoint x="250" y="590" as="targetPoint" />
          </mxGeometry>
        </mxCell>
        <mxCell id="J3AjAf2UTJisOIDAEpsq-19" value="" style="endArrow=classic;html=1;rounded=0;exitX=0.5;exitY=1;exitDx=0;exitDy=0;entryX=0.5;entryY=0;entryDx=0;entryDy=0;" edge="1" parent="1" source="J3AjAf2UTJisOIDAEpsq-4" target="J3AjAf2UTJisOIDAEpsq-1">
          <mxGeometry width="50" height="50" relative="1" as="geometry">
            <mxPoint x="200" y="530" as="sourcePoint" />
            <mxPoint x="150" y="590" as="targetPoint" />
          </mxGeometry>
        </mxCell>
        <mxCell id="J3AjAf2UTJisOIDAEpsq-20" value="" style="endArrow=classic;html=1;rounded=0;exitX=0.5;exitY=1;exitDx=0;exitDy=0;entryX=0.5;entryY=0;entryDx=0;entryDy=0;" edge="1" parent="1" source="J3AjAf2UTJisOIDAEpsq-3" target="J3AjAf2UTJisOIDAEpsq-5">
          <mxGeometry width="50" height="50" relative="1" as="geometry">
            <mxPoint x="210" y="540" as="sourcePoint" />
            <mxPoint x="160" y="600" as="targetPoint" />
          </mxGeometry>
        </mxCell>
        <mxCell id="J3AjAf2UTJisOIDAEpsq-21" value="" style="endArrow=classic;html=1;rounded=0;exitX=0.5;exitY=1;exitDx=0;exitDy=0;entryX=0.5;entryY=0;entryDx=0;entryDy=0;" edge="1" parent="1" source="J3AjAf2UTJisOIDAEpsq-4" target="J3AjAf2UTJisOIDAEpsq-5">
          <mxGeometry width="50" height="50" relative="1" as="geometry">
            <mxPoint x="220" y="550" as="sourcePoint" />
            <mxPoint x="170" y="610" as="targetPoint" />
          </mxGeometry>
        </mxCell>
        <mxCell id="J3AjAf2UTJisOIDAEpsq-22" value="" style="endArrow=classic;html=1;rounded=0;exitX=0.443;exitY=1.002;exitDx=0;exitDy=0;entryX=0.5;entryY=0;entryDx=0;entryDy=0;exitPerimeter=0;" edge="1" parent="1" source="J3AjAf2UTJisOIDAEpsq-7" target="J3AjAf2UTJisOIDAEpsq-2">
          <mxGeometry width="50" height="50" relative="1" as="geometry">
            <mxPoint x="50" y="410" as="sourcePoint" />
            <mxPoint x="103" y="470" as="targetPoint" />
          </mxGeometry>
        </mxCell>
        <mxCell id="J3AjAf2UTJisOIDAEpsq-23" value="" style="endArrow=classic;html=1;rounded=0;exitX=0.405;exitY=0.983;exitDx=0;exitDy=0;entryX=0.5;entryY=0;entryDx=0;entryDy=0;exitPerimeter=0;" edge="1" parent="1" source="J3AjAf2UTJisOIDAEpsq-7" target="J3AjAf2UTJisOIDAEpsq-3">
          <mxGeometry width="50" height="50" relative="1" as="geometry">
            <mxPoint x="147" y="410" as="sourcePoint" />
            <mxPoint x="103" y="470" as="targetPoint" />
          </mxGeometry>
        </mxCell>
        <mxCell id="J3AjAf2UTJisOIDAEpsq-24" value="" style="endArrow=classic;html=1;rounded=0;exitX=0.5;exitY=1;exitDx=0;exitDy=0;entryX=0.5;entryY=0;entryDx=0;entryDy=0;" edge="1" parent="1" source="J3AjAf2UTJisOIDAEpsq-7" target="J3AjAf2UTJisOIDAEpsq-4">
          <mxGeometry width="50" height="50" relative="1" as="geometry">
            <mxPoint x="157" y="420" as="sourcePoint" />
            <mxPoint x="113" y="480" as="targetPoint" />
          </mxGeometry>
        </mxCell>
        <mxCell id="J3AjAf2UTJisOIDAEpsq-25" value="" style="endArrow=classic;html=1;rounded=0;exitX=0.5;exitY=1;exitDx=0;exitDy=0;entryX=0.5;entryY=0;entryDx=0;entryDy=0;" edge="1" parent="1" source="J3AjAf2UTJisOIDAEpsq-8" target="J3AjAf2UTJisOIDAEpsq-2">
          <mxGeometry width="50" height="50" relative="1" as="geometry">
            <mxPoint x="167" y="430" as="sourcePoint" />
            <mxPoint x="123" y="490" as="targetPoint" />
          </mxGeometry>
        </mxCell>
        <mxCell id="J3AjAf2UTJisOIDAEpsq-26" value="" style="endArrow=classic;html=1;rounded=0;exitX=0.5;exitY=1;exitDx=0;exitDy=0;entryX=0.5;entryY=0;entryDx=0;entryDy=0;" edge="1" parent="1" source="J3AjAf2UTJisOIDAEpsq-8" target="J3AjAf2UTJisOIDAEpsq-3">
          <mxGeometry width="50" height="50" relative="1" as="geometry">
            <mxPoint x="177" y="440" as="sourcePoint" />
            <mxPoint x="133" y="500" as="targetPoint" />
          </mxGeometry>
        </mxCell>
        <mxCell id="J3AjAf2UTJisOIDAEpsq-27" value="" style="endArrow=classic;html=1;rounded=0;exitX=0.5;exitY=1;exitDx=0;exitDy=0;entryX=0.5;entryY=0;entryDx=0;entryDy=0;" edge="1" parent="1" source="J3AjAf2UTJisOIDAEpsq-9" target="J3AjAf2UTJisOIDAEpsq-2">
          <mxGeometry width="50" height="50" relative="1" as="geometry">
            <mxPoint x="177" y="440" as="sourcePoint" />
            <mxPoint x="133" y="500" as="targetPoint" />
          </mxGeometry>
        </mxCell>
        <mxCell id="J3AjAf2UTJisOIDAEpsq-28" value="" style="endArrow=classic;html=1;rounded=0;exitX=0.5;exitY=1;exitDx=0;exitDy=0;entryX=0.5;entryY=0;entryDx=0;entryDy=0;" edge="1" parent="1" source="J3AjAf2UTJisOIDAEpsq-8" target="J3AjAf2UTJisOIDAEpsq-4">
          <mxGeometry width="50" height="50" relative="1" as="geometry">
            <mxPoint x="187" y="450" as="sourcePoint" />
            <mxPoint x="143" y="510" as="targetPoint" />
          </mxGeometry>
        </mxCell>
        <mxCell id="J3AjAf2UTJisOIDAEpsq-29" value="" style="endArrow=classic;html=1;rounded=0;exitX=0.5;exitY=1;exitDx=0;exitDy=0;entryX=0.5;entryY=0;entryDx=0;entryDy=0;" edge="1" parent="1" source="J3AjAf2UTJisOIDAEpsq-9" target="J3AjAf2UTJisOIDAEpsq-4">
          <mxGeometry width="50" height="50" relative="1" as="geometry">
            <mxPoint x="197" y="460" as="sourcePoint" />
            <mxPoint x="153" y="520" as="targetPoint" />
          </mxGeometry>
        </mxCell>
        <mxCell id="J3AjAf2UTJisOIDAEpsq-30" value="" style="ellipse;whiteSpace=wrap;html=1;aspect=fixed;" vertex="1" parent="1">
          <mxGeometry x="560" y="580" width="60" height="60" as="geometry" />
        </mxCell>
        <mxCell id="J3AjAf2UTJisOIDAEpsq-31" value="" style="ellipse;whiteSpace=wrap;html=1;aspect=fixed;" vertex="1" parent="1">
          <mxGeometry x="513" y="460" width="60" height="60" as="geometry" />
        </mxCell>
        <mxCell id="J3AjAf2UTJisOIDAEpsq-33" value="" style="ellipse;whiteSpace=wrap;html=1;aspect=fixed;" vertex="1" parent="1">
          <mxGeometry x="700" y="460" width="60" height="60" as="geometry" />
        </mxCell>
        <mxCell id="J3AjAf2UTJisOIDAEpsq-34" value="" style="ellipse;whiteSpace=wrap;html=1;aspect=fixed;" vertex="1" parent="1">
          <mxGeometry x="660" y="580" width="60" height="60" as="geometry" />
        </mxCell>
        <mxCell id="J3AjAf2UTJisOIDAEpsq-35" value="" style="ellipse;whiteSpace=wrap;html=1;aspect=fixed;" vertex="1" parent="1">
          <mxGeometry x="460" y="340" width="60" height="60" as="geometry" />
        </mxCell>
        <mxCell id="J3AjAf2UTJisOIDAEpsq-36" value="" style="ellipse;whiteSpace=wrap;html=1;aspect=fixed;" vertex="1" parent="1">
          <mxGeometry x="560" y="340" width="60" height="60" as="geometry" />
        </mxCell>
        <mxCell id="J3AjAf2UTJisOIDAEpsq-37" value="" style="ellipse;whiteSpace=wrap;html=1;aspect=fixed;" vertex="1" parent="1">
          <mxGeometry x="660" y="340" width="60" height="60" as="geometry" />
        </mxCell>
        <mxCell id="J3AjAf2UTJisOIDAEpsq-38" value="" style="ellipse;whiteSpace=wrap;html=1;aspect=fixed;" vertex="1" parent="1">
          <mxGeometry x="760" y="340" width="60" height="60" as="geometry" />
        </mxCell>
        <mxCell id="J3AjAf2UTJisOIDAEpsq-39" value="" style="endArrow=classic;html=1;rounded=0;exitX=0.5;exitY=1;exitDx=0;exitDy=0;entryX=0.5;entryY=0;entryDx=0;entryDy=0;" edge="1" parent="1" source="J3AjAf2UTJisOIDAEpsq-35" target="J3AjAf2UTJisOIDAEpsq-31">
          <mxGeometry width="50" height="50" relative="1" as="geometry">
            <mxPoint x="490" y="640" as="sourcePoint" />
            <mxPoint x="540" y="590" as="targetPoint" />
          </mxGeometry>
        </mxCell>
        <mxCell id="J3AjAf2UTJisOIDAEpsq-42" value="" style="endArrow=classic;html=1;rounded=0;exitX=0.5;exitY=1;exitDx=0;exitDy=0;entryX=0.5;entryY=0;entryDx=0;entryDy=0;" edge="1" parent="1" source="J3AjAf2UTJisOIDAEpsq-31" target="J3AjAf2UTJisOIDAEpsq-30">
          <mxGeometry width="50" height="50" relative="1" as="geometry">
            <mxPoint x="520" y="430" as="sourcePoint" />
            <mxPoint x="573" y="490" as="targetPoint" />
          </mxGeometry>
        </mxCell>
        <mxCell id="J3AjAf2UTJisOIDAEpsq-45" value="" style="endArrow=classic;html=1;rounded=0;exitX=0.5;exitY=1;exitDx=0;exitDy=0;entryX=0.5;entryY=0;entryDx=0;entryDy=0;" edge="1" parent="1" source="J3AjAf2UTJisOIDAEpsq-33" target="J3AjAf2UTJisOIDAEpsq-30">
          <mxGeometry width="50" height="50" relative="1" as="geometry">
            <mxPoint x="650" y="530" as="sourcePoint" />
            <mxPoint x="600" y="590" as="targetPoint" />
          </mxGeometry>
        </mxCell>
        <mxCell id="J3AjAf2UTJisOIDAEpsq-47" value="" style="endArrow=classic;html=1;rounded=0;exitX=0.5;exitY=1;exitDx=0;exitDy=0;entryX=0.5;entryY=0;entryDx=0;entryDy=0;" edge="1" parent="1" source="J3AjAf2UTJisOIDAEpsq-33" target="J3AjAf2UTJisOIDAEpsq-34">
          <mxGeometry width="50" height="50" relative="1" as="geometry">
            <mxPoint x="670" y="550" as="sourcePoint" />
            <mxPoint x="620" y="610" as="targetPoint" />
          </mxGeometry>
        </mxCell>
        <mxCell id="J3AjAf2UTJisOIDAEpsq-48" value="" style="endArrow=classic;html=1;rounded=0;exitX=0.443;exitY=1.002;exitDx=0;exitDy=0;entryX=0.5;entryY=0;entryDx=0;entryDy=0;exitPerimeter=0;" edge="1" parent="1" source="J3AjAf2UTJisOIDAEpsq-36" target="J3AjAf2UTJisOIDAEpsq-31">
          <mxGeometry width="50" height="50" relative="1" as="geometry">
            <mxPoint x="500" y="410" as="sourcePoint" />
            <mxPoint x="553" y="470" as="targetPoint" />
          </mxGeometry>
        </mxCell>
        <mxCell id="J3AjAf2UTJisOIDAEpsq-53" value="" style="endArrow=classic;html=1;rounded=0;exitX=0.5;exitY=1;exitDx=0;exitDy=0;entryX=0.5;entryY=0;entryDx=0;entryDy=0;" edge="1" parent="1" source="J3AjAf2UTJisOIDAEpsq-38" target="J3AjAf2UTJisOIDAEpsq-31">
          <mxGeometry width="50" height="50" relative="1" as="geometry">
            <mxPoint x="627" y="440" as="sourcePoint" />
            <mxPoint x="583" y="500" as="targetPoint" />
          </mxGeometry>
        </mxCell>
        <mxCell id="J3AjAf2UTJisOIDAEpsq-54" value="" style="endArrow=classic;html=1;rounded=0;exitX=0.5;exitY=1;exitDx=0;exitDy=0;entryX=0.5;entryY=0;entryDx=0;entryDy=0;" edge="1" parent="1" source="J3AjAf2UTJisOIDAEpsq-37" target="J3AjAf2UTJisOIDAEpsq-33">
          <mxGeometry width="50" height="50" relative="1" as="geometry">
            <mxPoint x="637" y="450" as="sourcePoint" />
            <mxPoint x="593" y="510" as="targetPoint" />
          </mxGeometry>
        </mxCell>
        <mxCell id="J3AjAf2UTJisOIDAEpsq-55" value="" style="endArrow=classic;html=1;rounded=0;exitX=0.5;exitY=1;exitDx=0;exitDy=0;entryX=0.5;entryY=0;entryDx=0;entryDy=0;" edge="1" parent="1" source="J3AjAf2UTJisOIDAEpsq-38" target="J3AjAf2UTJisOIDAEpsq-33">
          <mxGeometry width="50" height="50" relative="1" as="geometry">
            <mxPoint x="647" y="460" as="sourcePoint" />
            <mxPoint x="603" y="520" as="targetPoint" />
          </mxGeometry>
        </mxCell>
        <mxCell id="J3AjAf2UTJisOIDAEpsq-56" value="" style="endArrow=classic;html=1;rounded=0;" edge="1" parent="1">
          <mxGeometry width="50" height="50" relative="1" as="geometry">
            <mxPoint x="330" y="500" as="sourcePoint" />
            <mxPoint x="490" y="500" as="targetPoint" />
          </mxGeometry>
        </mxCell>
        <mxCell id="J3AjAf2UTJisOIDAEpsq-58" value="&lt;font style=&quot;font-size: 18px;&quot;&gt;prune&lt;/font&gt;" style="edgeLabel;html=1;align=center;verticalAlign=middle;resizable=0;points=[];" vertex="1" connectable="0" parent="J3AjAf2UTJisOIDAEpsq-56">
          <mxGeometry x="0.0089" relative="1" as="geometry">
            <mxPoint as="offset" />
          </mxGeometry>
        </mxCell>
      </root>
    </mxGraphModel>
  </diagram>
</mxfile>
